<mxfile host="app.diagrams.net" modified="2023-11-13T20:32:55.709Z" agent="Mozilla/5.0 (Windows NT 10.0; Win64; x64) AppleWebKit/537.36 (KHTML, like Gecko) Chrome/119.0.0.0 Safari/537.36" etag="PDJblC_bT9L4jzg3A5Ox" version="22.1.0" type="device">
  <diagram name="Page-1" id="B162DgcOhGCKZkfSiGtm">
    <mxGraphModel dx="1434" dy="1927" grid="1" gridSize="10" guides="1" tooltips="1" connect="1" arrows="1" fold="1" page="1" pageScale="1" pageWidth="827" pageHeight="1169" math="0" shadow="0">
      <root>
        <mxCell id="0" />
        <mxCell id="1" parent="0" />
        <mxCell id="_OQfR9bOk1HYMgB2qvdo-1" value="Customer/Client" style="swimlane;fontStyle=0;childLayout=stackLayout;horizontal=1;startSize=26;horizontalStack=0;resizeParent=1;resizeParentMax=0;resizeLast=0;collapsible=1;marginBottom=0;align=center;fontSize=14;fillColor=#f8cecc;strokeColor=#b85450;" parent="1" vertex="1">
          <mxGeometry x="197.5" y="-794" width="170" height="210" as="geometry" />
        </mxCell>
        <mxCell id="_OQfR9bOk1HYMgB2qvdo-2" value="&lt;u&gt;Customer ID&lt;/u&gt;" style="text;strokeColor=none;fillColor=none;spacingLeft=4;spacingRight=4;overflow=hidden;rotatable=0;points=[[0,0.5],[1,0.5]];portConstraint=eastwest;fontSize=12;whiteSpace=wrap;html=1;" parent="_OQfR9bOk1HYMgB2qvdo-1" vertex="1">
          <mxGeometry y="26" width="170" height="30" as="geometry" />
        </mxCell>
        <mxCell id="_OQfR9bOk1HYMgB2qvdo-3" value="Name" style="text;strokeColor=none;fillColor=none;spacingLeft=4;spacingRight=4;overflow=hidden;rotatable=0;points=[[0,0.5],[1,0.5]];portConstraint=eastwest;fontSize=12;whiteSpace=wrap;html=1;" parent="_OQfR9bOk1HYMgB2qvdo-1" vertex="1">
          <mxGeometry y="56" width="170" height="30" as="geometry" />
        </mxCell>
        <mxCell id="_OQfR9bOk1HYMgB2qvdo-4" value="Date of Enrolment" style="text;strokeColor=none;fillColor=none;spacingLeft=4;spacingRight=4;overflow=hidden;rotatable=0;points=[[0,0.5],[1,0.5]];portConstraint=eastwest;fontSize=12;whiteSpace=wrap;html=1;" parent="_OQfR9bOk1HYMgB2qvdo-1" vertex="1">
          <mxGeometry y="86" width="170" height="30" as="geometry" />
        </mxCell>
        <mxCell id="_OQfR9bOk1HYMgB2qvdo-5" value="Date of Birth&amp;nbsp;" style="text;strokeColor=none;fillColor=none;spacingLeft=4;spacingRight=4;overflow=hidden;rotatable=0;points=[[0,0.5],[1,0.5]];portConstraint=eastwest;fontSize=12;whiteSpace=wrap;html=1;" parent="_OQfR9bOk1HYMgB2qvdo-1" vertex="1">
          <mxGeometry y="116" width="170" height="30" as="geometry" />
        </mxCell>
        <mxCell id="_OQfR9bOk1HYMgB2qvdo-6" value="Contact Information(Phone, Email, Address)&amp;nbsp;" style="text;strokeColor=none;fillColor=none;spacingLeft=4;spacingRight=4;overflow=hidden;rotatable=0;points=[[0,0.5],[1,0.5]];portConstraint=eastwest;fontSize=12;whiteSpace=wrap;html=1;" parent="_OQfR9bOk1HYMgB2qvdo-1" vertex="1">
          <mxGeometry y="146" width="170" height="34" as="geometry" />
        </mxCell>
        <mxCell id="_OQfR9bOk1HYMgB2qvdo-7" value="SSN&amp;nbsp;" style="text;strokeColor=none;fillColor=none;spacingLeft=4;spacingRight=4;overflow=hidden;rotatable=0;points=[[0,0.5],[1,0.5]];portConstraint=eastwest;fontSize=12;whiteSpace=wrap;html=1;" parent="_OQfR9bOk1HYMgB2qvdo-1" vertex="1">
          <mxGeometry y="180" width="170" height="30" as="geometry" />
        </mxCell>
        <mxCell id="FK3XN3L6abhNY9gMOmqv-15" style="edgeStyle=orthogonalEdgeStyle;rounded=0;orthogonalLoop=1;jettySize=auto;html=1;exitX=0.5;exitY=0;exitDx=0;exitDy=0;entryX=-0.012;entryY=-0.067;entryDx=0;entryDy=0;entryPerimeter=0;fillColor=#f8cecc;strokeColor=#b85450;" parent="_OQfR9bOk1HYMgB2qvdo-1" source="_OQfR9bOk1HYMgB2qvdo-1" target="_OQfR9bOk1HYMgB2qvdo-4" edge="1">
          <mxGeometry relative="1" as="geometry">
            <Array as="points">
              <mxPoint x="85" y="-26" />
              <mxPoint x="-27" y="-26" />
              <mxPoint x="-27" y="84" />
            </Array>
          </mxGeometry>
        </mxCell>
        <mxCell id="FK3XN3L6abhNY9gMOmqv-16" value="&lt;font style=&quot;font-size: 14px;&quot;&gt;Loyal customer&lt;/font&gt;" style="edgeLabel;html=1;align=center;verticalAlign=middle;resizable=0;points=[];" parent="FK3XN3L6abhNY9gMOmqv-15" vertex="1" connectable="0">
          <mxGeometry x="-0.3405" y="-3" relative="1" as="geometry">
            <mxPoint as="offset" />
          </mxGeometry>
        </mxCell>
        <mxCell id="_OQfR9bOk1HYMgB2qvdo-9" value="Account" style="swimlane;fontStyle=0;childLayout=stackLayout;horizontal=1;startSize=26;horizontalStack=0;resizeParent=1;resizeParentMax=0;resizeLast=0;collapsible=1;marginBottom=0;align=center;fontSize=14;fillColor=#f8cecc;strokeColor=#b85450;" parent="1" vertex="1">
          <mxGeometry x="450" y="-730" width="110" height="146" as="geometry" />
        </mxCell>
        <mxCell id="_OQfR9bOk1HYMgB2qvdo-10" value="&lt;u&gt;Account ID&amp;nbsp;&lt;/u&gt;" style="text;strokeColor=none;fillColor=none;spacingLeft=4;spacingRight=4;overflow=hidden;rotatable=0;points=[[0,0.5],[1,0.5]];portConstraint=eastwest;fontSize=12;whiteSpace=wrap;html=1;" parent="_OQfR9bOk1HYMgB2qvdo-9" vertex="1">
          <mxGeometry y="26" width="110" height="30" as="geometry" />
        </mxCell>
        <mxCell id="_OQfR9bOk1HYMgB2qvdo-11" value="Account Type&amp;nbsp;" style="text;strokeColor=none;fillColor=none;spacingLeft=4;spacingRight=4;overflow=hidden;rotatable=0;points=[[0,0.5],[1,0.5]];portConstraint=eastwest;fontSize=12;whiteSpace=wrap;html=1;" parent="_OQfR9bOk1HYMgB2qvdo-9" vertex="1">
          <mxGeometry y="56" width="110" height="30" as="geometry" />
        </mxCell>
        <mxCell id="_OQfR9bOk1HYMgB2qvdo-12" value="Balance&amp;nbsp;" style="text;strokeColor=none;fillColor=none;spacingLeft=4;spacingRight=4;overflow=hidden;rotatable=0;points=[[0,0.5],[1,0.5]];portConstraint=eastwest;fontSize=12;whiteSpace=wrap;html=1;" parent="_OQfR9bOk1HYMgB2qvdo-9" vertex="1">
          <mxGeometry y="86" width="110" height="30" as="geometry" />
        </mxCell>
        <mxCell id="_OQfR9bOk1HYMgB2qvdo-13" value="Opening Date&amp;nbsp;" style="text;strokeColor=none;fillColor=none;spacingLeft=4;spacingRight=4;overflow=hidden;rotatable=0;points=[[0,0.5],[1,0.5]];portConstraint=eastwest;fontSize=12;whiteSpace=wrap;html=1;" parent="_OQfR9bOk1HYMgB2qvdo-9" vertex="1">
          <mxGeometry y="116" width="110" height="30" as="geometry" />
        </mxCell>
        <mxCell id="_OQfR9bOk1HYMgB2qvdo-15" value="Transaction" style="swimlane;fontStyle=0;childLayout=stackLayout;horizontal=1;startSize=26;horizontalStack=0;resizeParent=1;resizeParentMax=0;resizeLast=0;collapsible=1;marginBottom=0;align=center;fontSize=14;fillColor=#f8cecc;strokeColor=#b85450;" parent="1" vertex="1">
          <mxGeometry x="630" y="-730" width="160" height="146" as="geometry" />
        </mxCell>
        <mxCell id="_OQfR9bOk1HYMgB2qvdo-16" value="&lt;u&gt;Transaction ID&amp;nbsp;&lt;/u&gt;" style="text;strokeColor=none;fillColor=none;spacingLeft=4;spacingRight=4;overflow=hidden;rotatable=0;points=[[0,0.5],[1,0.5]];portConstraint=eastwest;fontSize=12;whiteSpace=wrap;html=1;" parent="_OQfR9bOk1HYMgB2qvdo-15" vertex="1">
          <mxGeometry y="26" width="160" height="30" as="geometry" />
        </mxCell>
        <mxCell id="_OQfR9bOk1HYMgB2qvdo-17" value="Transaction Type&amp;nbsp;" style="text;strokeColor=none;fillColor=none;spacingLeft=4;spacingRight=4;overflow=hidden;rotatable=0;points=[[0,0.5],[1,0.5]];portConstraint=eastwest;fontSize=12;whiteSpace=wrap;html=1;" parent="_OQfR9bOk1HYMgB2qvdo-15" vertex="1">
          <mxGeometry y="56" width="160" height="30" as="geometry" />
        </mxCell>
        <mxCell id="_OQfR9bOk1HYMgB2qvdo-18" value="Amount&amp;nbsp;" style="text;strokeColor=none;fillColor=none;spacingLeft=4;spacingRight=4;overflow=hidden;rotatable=0;points=[[0,0.5],[1,0.5]];portConstraint=eastwest;fontSize=12;whiteSpace=wrap;html=1;" parent="_OQfR9bOk1HYMgB2qvdo-15" vertex="1">
          <mxGeometry y="86" width="160" height="30" as="geometry" />
        </mxCell>
        <mxCell id="_OQfR9bOk1HYMgB2qvdo-19" value="Transaction Date and Time" style="text;strokeColor=none;fillColor=none;spacingLeft=4;spacingRight=4;overflow=hidden;rotatable=0;points=[[0,0.5],[1,0.5]];portConstraint=eastwest;fontSize=12;whiteSpace=wrap;html=1;" parent="_OQfR9bOk1HYMgB2qvdo-15" vertex="1">
          <mxGeometry y="116" width="160" height="30" as="geometry" />
        </mxCell>
        <mxCell id="_OQfR9bOk1HYMgB2qvdo-20" style="edgeStyle=orthogonalEdgeStyle;rounded=0;orthogonalLoop=1;jettySize=auto;html=1;exitX=0;exitY=0.5;exitDx=0;exitDy=0;entryX=1;entryY=0.5;entryDx=0;entryDy=0;startArrow=ERoneToMany;startFill=0;endArrow=ERmandOne;endFill=0;fillColor=#f8cecc;strokeColor=#b85450;" parent="1" source="_OQfR9bOk1HYMgB2qvdo-18" target="_OQfR9bOk1HYMgB2qvdo-12" edge="1">
          <mxGeometry relative="1" as="geometry" />
        </mxCell>
        <mxCell id="_OQfR9bOk1HYMgB2qvdo-21" value="Financial Products" style="swimlane;fontStyle=0;childLayout=stackLayout;horizontal=1;startSize=26;horizontalStack=0;resizeParent=1;resizeParentMax=0;resizeLast=0;collapsible=1;marginBottom=0;align=center;fontSize=14;fillColor=#f8cecc;strokeColor=#b85450;" parent="1" vertex="1">
          <mxGeometry x="517.5" y="-540" width="160" height="146" as="geometry" />
        </mxCell>
        <mxCell id="_OQfR9bOk1HYMgB2qvdo-22" value="&lt;u&gt;Product ID&amp;nbsp;&lt;/u&gt;" style="text;strokeColor=none;fillColor=none;spacingLeft=4;spacingRight=4;overflow=hidden;rotatable=0;points=[[0,0.5],[1,0.5]];portConstraint=eastwest;fontSize=12;whiteSpace=wrap;html=1;" parent="_OQfR9bOk1HYMgB2qvdo-21" vertex="1">
          <mxGeometry y="26" width="160" height="30" as="geometry" />
        </mxCell>
        <mxCell id="_OQfR9bOk1HYMgB2qvdo-23" value="Product Type&amp;nbsp;" style="text;strokeColor=none;fillColor=none;spacingLeft=4;spacingRight=4;overflow=hidden;rotatable=0;points=[[0,0.5],[1,0.5]];portConstraint=eastwest;fontSize=12;whiteSpace=wrap;html=1;" parent="_OQfR9bOk1HYMgB2qvdo-21" vertex="1">
          <mxGeometry y="56" width="160" height="30" as="geometry" />
        </mxCell>
        <mxCell id="_OQfR9bOk1HYMgB2qvdo-24" value="Product Name&amp;nbsp;" style="text;strokeColor=none;fillColor=none;spacingLeft=4;spacingRight=4;overflow=hidden;rotatable=0;points=[[0,0.5],[1,0.5]];portConstraint=eastwest;fontSize=12;whiteSpace=wrap;html=1;" parent="_OQfR9bOk1HYMgB2qvdo-21" vertex="1">
          <mxGeometry y="86" width="160" height="30" as="geometry" />
        </mxCell>
        <mxCell id="_OQfR9bOk1HYMgB2qvdo-25" value="Price&amp;nbsp;" style="text;strokeColor=none;fillColor=none;spacingLeft=4;spacingRight=4;overflow=hidden;rotatable=0;points=[[0,0.5],[1,0.5]];portConstraint=eastwest;fontSize=12;whiteSpace=wrap;html=1;" parent="_OQfR9bOk1HYMgB2qvdo-21" vertex="1">
          <mxGeometry y="116" width="160" height="30" as="geometry" />
        </mxCell>
        <mxCell id="_OQfR9bOk1HYMgB2qvdo-27" value="&lt;u&gt;Customer ID&lt;/u&gt;" style="rounded=0;whiteSpace=wrap;html=1;" parent="1" vertex="1">
          <mxGeometry x="104.5" y="498" width="79" height="36" as="geometry" />
        </mxCell>
        <mxCell id="_OQfR9bOk1HYMgB2qvdo-28" value="Name" style="rounded=0;whiteSpace=wrap;html=1;" parent="1" vertex="1">
          <mxGeometry x="183.5" y="495" width="70" height="40" as="geometry" />
        </mxCell>
        <mxCell id="_OQfR9bOk1HYMgB2qvdo-29" value="&lt;p class=&quot;MsoNormal&quot;&gt;Date of Enrolment&lt;br&gt;&lt;/p&gt;" style="rounded=0;whiteSpace=wrap;html=1;" parent="1" vertex="1">
          <mxGeometry x="253.5" y="495" width="70" height="40" as="geometry" />
        </mxCell>
        <mxCell id="_OQfR9bOk1HYMgB2qvdo-30" value="&lt;p class=&quot;MsoNormal&quot;&gt;Date of Birth&lt;/p&gt;" style="rounded=0;whiteSpace=wrap;html=1;" parent="1" vertex="1">
          <mxGeometry x="323.5" y="495" width="70" height="40" as="geometry" />
        </mxCell>
        <mxCell id="_OQfR9bOk1HYMgB2qvdo-31" value="Phone" style="rounded=0;whiteSpace=wrap;html=1;" parent="1" vertex="1">
          <mxGeometry x="393.5" y="495" width="70" height="40" as="geometry" />
        </mxCell>
        <mxCell id="_OQfR9bOk1HYMgB2qvdo-32" value="Email" style="rounded=0;whiteSpace=wrap;html=1;" parent="1" vertex="1">
          <mxGeometry x="463.5" y="495" width="70" height="40" as="geometry" />
        </mxCell>
        <mxCell id="_OQfR9bOk1HYMgB2qvdo-33" value="Address" style="rounded=0;whiteSpace=wrap;html=1;" parent="1" vertex="1">
          <mxGeometry x="533.5" y="495" width="70" height="40" as="geometry" />
        </mxCell>
        <mxCell id="_OQfR9bOk1HYMgB2qvdo-34" value="SSN" style="rounded=0;whiteSpace=wrap;html=1;" parent="1" vertex="1">
          <mxGeometry x="603.5" y="495" width="70" height="40" as="geometry" />
        </mxCell>
        <mxCell id="_OQfR9bOk1HYMgB2qvdo-35" value="&lt;font style=&quot;font-size: 14px;&quot;&gt;Customer&amp;nbsp;&lt;/font&gt;" style="text;html=1;align=center;verticalAlign=middle;resizable=0;points=[];autosize=1;strokeColor=none;fillColor=none;" parent="1" vertex="1">
          <mxGeometry x="60.5" y="471" width="90" height="30" as="geometry" />
        </mxCell>
        <mxCell id="_OQfR9bOk1HYMgB2qvdo-37" value="&lt;u&gt;Account ID&amp;nbsp;&lt;/u&gt;" style="rounded=0;whiteSpace=wrap;html=1;" parent="1" vertex="1">
          <mxGeometry x="113.5" y="675" width="70" height="40" as="geometry" />
        </mxCell>
        <mxCell id="_OQfR9bOk1HYMgB2qvdo-38" value="&lt;p class=&quot;MsoNormal&quot;&gt;Account Type&lt;/p&gt;" style="rounded=0;whiteSpace=wrap;html=1;" parent="1" vertex="1">
          <mxGeometry x="183.5" y="675" width="70" height="40" as="geometry" />
        </mxCell>
        <mxCell id="_OQfR9bOk1HYMgB2qvdo-39" value="&lt;p class=&quot;MsoNormal&quot;&gt;Balance&lt;/p&gt;" style="rounded=0;whiteSpace=wrap;html=1;" parent="1" vertex="1">
          <mxGeometry x="253.5" y="675" width="70" height="40" as="geometry" />
        </mxCell>
        <mxCell id="_OQfR9bOk1HYMgB2qvdo-40" value="&lt;p class=&quot;MsoNormal&quot;&gt;Opening Date&lt;/p&gt;" style="rounded=0;whiteSpace=wrap;html=1;" parent="1" vertex="1">
          <mxGeometry x="323.5" y="675" width="70" height="40" as="geometry" />
        </mxCell>
        <mxCell id="_OQfR9bOk1HYMgB2qvdo-41" value="&lt;font style=&quot;font-size: 14px;&quot;&gt;&lt;font style=&quot;font-size: 14px;&quot;&gt;Account&lt;/font&gt;&amp;nbsp;&lt;/font&gt;" style="text;html=1;align=center;verticalAlign=middle;resizable=0;points=[];autosize=1;strokeColor=none;fillColor=none;" parent="1" vertex="1">
          <mxGeometry x="60" y="650" width="80" height="30" as="geometry" />
        </mxCell>
        <mxCell id="_OQfR9bOk1HYMgB2qvdo-45" value="&lt;u&gt;Transaction ID&lt;/u&gt;" style="rounded=0;whiteSpace=wrap;html=1;" parent="1" vertex="1">
          <mxGeometry x="113.5" y="868" width="70" height="40" as="geometry" />
        </mxCell>
        <mxCell id="_OQfR9bOk1HYMgB2qvdo-46" value="&lt;p class=&quot;MsoNormal&quot;&gt;Amount&lt;/p&gt;" style="rounded=0;whiteSpace=wrap;html=1;" parent="1" vertex="1">
          <mxGeometry x="253.5" y="868" width="70" height="40" as="geometry" />
        </mxCell>
        <mxCell id="_OQfR9bOk1HYMgB2qvdo-47" value="&lt;p class=&quot;MsoNormal&quot;&gt;Transaction Type&lt;/p&gt;" style="rounded=0;whiteSpace=wrap;html=1;" parent="1" vertex="1">
          <mxGeometry x="183.5" y="868" width="70" height="40" as="geometry" />
        </mxCell>
        <mxCell id="_OQfR9bOk1HYMgB2qvdo-48" value="Transaction Date&amp;nbsp;" style="rounded=0;whiteSpace=wrap;html=1;" parent="1" vertex="1">
          <mxGeometry x="323.5" y="868" width="70" height="40" as="geometry" />
        </mxCell>
        <mxCell id="_OQfR9bOk1HYMgB2qvdo-49" value="Transaction Time" style="rounded=0;whiteSpace=wrap;html=1;" parent="1" vertex="1">
          <mxGeometry x="393.5" y="868" width="70" height="40" as="geometry" />
        </mxCell>
        <mxCell id="_OQfR9bOk1HYMgB2qvdo-50" value="&lt;font style=&quot;font-size: 14px;&quot;&gt;Transaction&amp;nbsp;&lt;/font&gt;" style="text;html=1;align=center;verticalAlign=middle;resizable=0;points=[];autosize=1;strokeColor=none;fillColor=none;" parent="1" vertex="1">
          <mxGeometry x="80.5" y="845" width="100" height="30" as="geometry" />
        </mxCell>
        <mxCell id="_OQfR9bOk1HYMgB2qvdo-51" value="&lt;font style=&quot;font-size: 14px;&quot;&gt;Financial Product&amp;nbsp;&lt;/font&gt;" style="text;html=1;align=center;verticalAlign=middle;resizable=0;points=[];autosize=1;strokeColor=none;fillColor=none;" parent="1" vertex="1">
          <mxGeometry x="85.5" y="327" width="140" height="30" as="geometry" />
        </mxCell>
        <mxCell id="_OQfR9bOk1HYMgB2qvdo-53" value="&lt;p class=&quot;MsoNormal&quot;&gt;&lt;u&gt;Product ID&amp;nbsp;&lt;/u&gt;&lt;br&gt;&lt;/p&gt;" style="rounded=0;whiteSpace=wrap;html=1;" parent="1" vertex="1">
          <mxGeometry x="121.5" y="350" width="70" height="40" as="geometry" />
        </mxCell>
        <mxCell id="_OQfR9bOk1HYMgB2qvdo-54" value="&lt;p class=&quot;MsoNormal&quot;&gt;Product Type&lt;/p&gt;" style="rounded=0;whiteSpace=wrap;html=1;" parent="1" vertex="1">
          <mxGeometry x="191.5" y="350" width="70" height="40" as="geometry" />
        </mxCell>
        <mxCell id="_OQfR9bOk1HYMgB2qvdo-55" value="&lt;p class=&quot;MsoNormal&quot;&gt;Product Name&lt;/p&gt;" style="rounded=0;whiteSpace=wrap;html=1;" parent="1" vertex="1">
          <mxGeometry x="261.5" y="350" width="70" height="40" as="geometry" />
        </mxCell>
        <mxCell id="_OQfR9bOk1HYMgB2qvdo-56" value="&lt;p class=&quot;MsoNormal&quot;&gt;Price&lt;/p&gt;" style="rounded=0;whiteSpace=wrap;html=1;" parent="1" vertex="1">
          <mxGeometry x="331.5" y="350" width="70" height="40" as="geometry" />
        </mxCell>
        <mxCell id="_OQfR9bOk1HYMgB2qvdo-58" value="&lt;font style=&quot;font-size: 14px;&quot;&gt;Account-Transaction&lt;/font&gt;" style="text;html=1;align=center;verticalAlign=middle;resizable=0;points=[];autosize=1;strokeColor=none;fillColor=none;" parent="1" vertex="1">
          <mxGeometry x="60.5" y="747" width="150" height="30" as="geometry" />
        </mxCell>
        <mxCell id="jGJSX7g6CHICEYYbEc6R-71" style="edgeStyle=orthogonalEdgeStyle;rounded=0;orthogonalLoop=1;jettySize=auto;html=1;exitX=0.5;exitY=0;exitDx=0;exitDy=0;entryX=0.5;entryY=1;entryDx=0;entryDy=0;" parent="1" source="_OQfR9bOk1HYMgB2qvdo-60" target="_OQfR9bOk1HYMgB2qvdo-37" edge="1">
          <mxGeometry relative="1" as="geometry" />
        </mxCell>
        <mxCell id="_OQfR9bOk1HYMgB2qvdo-60" value="&lt;p class=&quot;MsoNormal&quot;&gt;&lt;u&gt;Account ID&amp;nbsp;&lt;/u&gt;&lt;br&gt;&lt;/p&gt;" style="rounded=0;whiteSpace=wrap;html=1;" parent="1" vertex="1">
          <mxGeometry x="183.5" y="771" width="70" height="40" as="geometry" />
        </mxCell>
        <mxCell id="_OQfR9bOk1HYMgB2qvdo-63" value="&lt;u&gt;Transaction ID&lt;/u&gt;" style="rounded=0;whiteSpace=wrap;html=1;" parent="1" vertex="1">
          <mxGeometry x="253.5" y="771" width="70" height="40" as="geometry" />
        </mxCell>
        <mxCell id="_OQfR9bOk1HYMgB2qvdo-65" value="&lt;font style=&quot;font-size: 14px;&quot;&gt;Customer-Account&lt;/font&gt;" style="text;html=1;align=center;verticalAlign=middle;resizable=0;points=[];autosize=1;strokeColor=none;fillColor=none;" parent="1" vertex="1">
          <mxGeometry x="60.5" y="568" width="140" height="30" as="geometry" />
        </mxCell>
        <mxCell id="_OQfR9bOk1HYMgB2qvdo-67" value="&lt;u&gt;Customer ID&lt;/u&gt;" style="rounded=0;whiteSpace=wrap;html=1;" parent="1" vertex="1">
          <mxGeometry x="180.5" y="587" width="70" height="40" as="geometry" />
        </mxCell>
        <mxCell id="_OQfR9bOk1HYMgB2qvdo-68" value="&lt;u&gt;Account ID&amp;nbsp;&lt;/u&gt;" style="rounded=0;whiteSpace=wrap;html=1;" parent="1" vertex="1">
          <mxGeometry x="250.5" y="587" width="70" height="40" as="geometry" />
        </mxCell>
        <mxCell id="FK3XN3L6abhNY9gMOmqv-30" value="Record" style="swimlane;fontStyle=0;childLayout=stackLayout;horizontal=1;startSize=26;horizontalStack=0;resizeParent=1;resizeParentMax=0;resizeLast=0;collapsible=1;marginBottom=0;align=center;fontSize=14;fillColor=#f8cecc;strokeColor=#b85450;" parent="1" vertex="1">
          <mxGeometry x="384" y="-510" width="59" height="56" as="geometry" />
        </mxCell>
        <mxCell id="FK3XN3L6abhNY9gMOmqv-35" style="edgeStyle=orthogonalEdgeStyle;rounded=0;orthogonalLoop=1;jettySize=auto;html=1;exitX=0;exitY=0.5;exitDx=0;exitDy=0;entryX=0.424;entryY=0.017;entryDx=0;entryDy=0;entryPerimeter=0;endArrow=ERoneToMany;endFill=0;startArrow=ERmandOne;startFill=0;fillColor=#f8cecc;strokeColor=#b85450;" parent="1" source="_OQfR9bOk1HYMgB2qvdo-13" target="FK3XN3L6abhNY9gMOmqv-30" edge="1">
          <mxGeometry relative="1" as="geometry" />
        </mxCell>
        <mxCell id="FK3XN3L6abhNY9gMOmqv-44" style="edgeStyle=orthogonalEdgeStyle;rounded=0;orthogonalLoop=1;jettySize=auto;html=1;exitX=0.5;exitY=0;exitDx=0;exitDy=0;entryX=0.5;entryY=1;entryDx=0;entryDy=0;" parent="1" source="FK3XN3L6abhNY9gMOmqv-37" target="_OQfR9bOk1HYMgB2qvdo-53" edge="1">
          <mxGeometry relative="1" as="geometry" />
        </mxCell>
        <mxCell id="FK3XN3L6abhNY9gMOmqv-37" value="&lt;p class=&quot;MsoNormal&quot;&gt;&lt;u style=&quot;border-color: var(--border-color);&quot;&gt;&amp;nbsp;Product ID&amp;nbsp;&lt;/u&gt;&lt;br&gt;&lt;/p&gt;" style="rounded=0;whiteSpace=wrap;html=1;" parent="1" vertex="1">
          <mxGeometry x="121.5" y="415" width="70" height="40" as="geometry" />
        </mxCell>
        <mxCell id="FK3XN3L6abhNY9gMOmqv-38" value="&lt;p class=&quot;MsoNormal&quot;&gt;&lt;u style=&quot;border-color: var(--border-color);&quot;&gt;Customer ID&lt;/u&gt;&lt;br&gt;&lt;/p&gt;" style="rounded=0;whiteSpace=wrap;html=1;" parent="1" vertex="1">
          <mxGeometry x="191.5" y="415" width="70" height="40" as="geometry" />
        </mxCell>
        <mxCell id="FK3XN3L6abhNY9gMOmqv-42" value="&lt;p class=&quot;MsoNormal&quot;&gt;&lt;u style=&quot;border-color: var(--border-color);&quot;&gt;Account ID&amp;nbsp;&lt;/u&gt;&lt;br&gt;&lt;/p&gt;" style="rounded=0;whiteSpace=wrap;html=1;" parent="1" vertex="1">
          <mxGeometry x="261.5" y="415" width="70" height="40" as="geometry" />
        </mxCell>
        <mxCell id="FK3XN3L6abhNY9gMOmqv-43" value="&lt;font style=&quot;font-size: 14px;&quot;&gt;Record&lt;/font&gt;" style="text;html=1;align=center;verticalAlign=middle;resizable=0;points=[];autosize=1;strokeColor=none;fillColor=none;" parent="1" vertex="1">
          <mxGeometry x="82" y="390" width="70" height="30" as="geometry" />
        </mxCell>
        <mxCell id="FK3XN3L6abhNY9gMOmqv-46" value="" style="endArrow=classic;html=1;rounded=0;entryX=0.75;entryY=0;entryDx=0;entryDy=0;endFill=1;exitX=1;exitY=0.5;exitDx=0;exitDy=0;" parent="1" target="_OQfR9bOk1HYMgB2qvdo-37" edge="1" source="FK3XN3L6abhNY9gMOmqv-42">
          <mxGeometry width="50" height="50" relative="1" as="geometry">
            <mxPoint x="473.5" y="435" as="sourcePoint" />
            <mxPoint x="653.5" y="365" as="targetPoint" />
            <Array as="points">
              <mxPoint x="683.5" y="435" />
              <mxPoint x="683.5" y="657" />
              <mxPoint x="424.5" y="657" />
              <mxPoint x="173.5" y="655" />
            </Array>
          </mxGeometry>
        </mxCell>
        <mxCell id="96PDqy86G1mkAxBN_A6K-1" style="edgeStyle=orthogonalEdgeStyle;rounded=0;orthogonalLoop=1;jettySize=auto;html=1;exitX=1;exitY=0.5;exitDx=0;exitDy=0;entryX=0;entryY=0.5;entryDx=0;entryDy=0;endArrow=ERoneToMany;endFill=0;startArrow=ERmandOne;startFill=0;fillColor=#f8cecc;strokeColor=#b85450;" parent="1" source="_OQfR9bOk1HYMgB2qvdo-3" target="_OQfR9bOk1HYMgB2qvdo-11" edge="1">
          <mxGeometry relative="1" as="geometry" />
        </mxCell>
        <mxCell id="jGJSX7g6CHICEYYbEc6R-17" value="Credit Scores" style="swimlane;fontStyle=0;childLayout=stackLayout;horizontal=1;startSize=26;horizontalStack=0;resizeParent=1;resizeParentMax=0;resizeLast=0;collapsible=1;marginBottom=0;align=center;fontSize=14;fillColor=#f8cecc;strokeColor=#b85450;" parent="1" vertex="1">
          <mxGeometry x="20" y="-690" width="97" height="116" as="geometry" />
        </mxCell>
        <mxCell id="jGJSX7g6CHICEYYbEc6R-18" value="&lt;u&gt;Credit Score ID&lt;/u&gt;" style="text;strokeColor=none;fillColor=none;spacingLeft=4;spacingRight=4;overflow=hidden;rotatable=0;points=[[0,0.5],[1,0.5]];portConstraint=eastwest;fontSize=12;whiteSpace=wrap;html=1;" parent="jGJSX7g6CHICEYYbEc6R-17" vertex="1">
          <mxGeometry y="26" width="97" height="30" as="geometry" />
        </mxCell>
        <mxCell id="jGJSX7g6CHICEYYbEc6R-19" value="Score&amp;nbsp;" style="text;strokeColor=none;fillColor=none;spacingLeft=4;spacingRight=4;overflow=hidden;rotatable=0;points=[[0,0.5],[1,0.5]];portConstraint=eastwest;fontSize=12;whiteSpace=wrap;html=1;" parent="jGJSX7g6CHICEYYbEc6R-17" vertex="1">
          <mxGeometry y="56" width="97" height="30" as="geometry" />
        </mxCell>
        <mxCell id="jGJSX7g6CHICEYYbEc6R-20" value="Score Date&amp;nbsp;" style="text;strokeColor=none;fillColor=none;spacingLeft=4;spacingRight=4;overflow=hidden;rotatable=0;points=[[0,0.5],[1,0.5]];portConstraint=eastwest;fontSize=12;whiteSpace=wrap;html=1;" parent="jGJSX7g6CHICEYYbEc6R-17" vertex="1">
          <mxGeometry y="86" width="97" height="30" as="geometry" />
        </mxCell>
        <mxCell id="jGJSX7g6CHICEYYbEc6R-26" style="edgeStyle=orthogonalEdgeStyle;rounded=0;orthogonalLoop=1;jettySize=auto;html=1;exitX=0.25;exitY=0;exitDx=0;exitDy=0;entryX=0;entryY=0.5;entryDx=0;entryDy=0;endArrow=ERoneToMany;endFill=0;startArrow=ERoneToMany;startFill=0;" parent="1" source="jGJSX7g6CHICEYYbEc6R-1" target="_OQfR9bOk1HYMgB2qvdo-6" edge="1">
          <mxGeometry relative="1" as="geometry">
            <Array as="points">
              <mxPoint x="214" y="-540" />
              <mxPoint x="150" y="-540" />
              <mxPoint x="150" y="-631" />
            </Array>
          </mxGeometry>
        </mxCell>
        <mxCell id="jGJSX7g6CHICEYYbEc6R-1" value="Employees" style="swimlane;fontStyle=0;childLayout=stackLayout;horizontal=1;startSize=26;horizontalStack=0;resizeParent=1;resizeParentMax=0;resizeLast=0;collapsible=1;marginBottom=0;align=center;fontSize=14;fillColor=#f8cecc;strokeColor=#b85450;" parent="1" vertex="1">
          <mxGeometry x="177" y="-510" width="147" height="250" as="geometry" />
        </mxCell>
        <mxCell id="jGJSX7g6CHICEYYbEc6R-2" value="&lt;u&gt;Employee ID&lt;/u&gt;" style="text;strokeColor=none;fillColor=none;spacingLeft=4;spacingRight=4;overflow=hidden;rotatable=0;points=[[0,0.5],[1,0.5]];portConstraint=eastwest;fontSize=12;whiteSpace=wrap;html=1;" parent="jGJSX7g6CHICEYYbEc6R-1" vertex="1">
          <mxGeometry y="26" width="147" height="30" as="geometry" />
        </mxCell>
        <mxCell id="jGJSX7g6CHICEYYbEc6R-3" value="Name&amp;nbsp;" style="text;strokeColor=none;fillColor=none;spacingLeft=4;spacingRight=4;overflow=hidden;rotatable=0;points=[[0,0.5],[1,0.5]];portConstraint=eastwest;fontSize=12;whiteSpace=wrap;html=1;" parent="jGJSX7g6CHICEYYbEc6R-1" vertex="1">
          <mxGeometry y="56" width="147" height="30" as="geometry" />
        </mxCell>
        <mxCell id="jGJSX7g6CHICEYYbEc6R-4" value="Date of Birth" style="text;strokeColor=none;fillColor=none;spacingLeft=4;spacingRight=4;overflow=hidden;rotatable=0;points=[[0,0.5],[1,0.5]];portConstraint=eastwest;fontSize=12;whiteSpace=wrap;html=1;" parent="jGJSX7g6CHICEYYbEc6R-1" vertex="1">
          <mxGeometry y="86" width="147" height="30" as="geometry" />
        </mxCell>
        <mxCell id="jGJSX7g6CHICEYYbEc6R-5" value="Position&amp;nbsp;" style="text;strokeColor=none;fillColor=none;spacingLeft=4;spacingRight=4;overflow=hidden;rotatable=0;points=[[0,0.5],[1,0.5]];portConstraint=eastwest;fontSize=12;whiteSpace=wrap;html=1;" parent="jGJSX7g6CHICEYYbEc6R-1" vertex="1">
          <mxGeometry y="116" width="147" height="30" as="geometry" />
        </mxCell>
        <mxCell id="jGJSX7g6CHICEYYbEc6R-6" value="Salary&amp;nbsp;" style="text;strokeColor=none;fillColor=none;spacingLeft=4;spacingRight=4;overflow=hidden;rotatable=0;points=[[0,0.5],[1,0.5]];portConstraint=eastwest;fontSize=12;whiteSpace=wrap;html=1;" parent="jGJSX7g6CHICEYYbEc6R-1" vertex="1">
          <mxGeometry y="146" width="147" height="30" as="geometry" />
        </mxCell>
        <mxCell id="jGJSX7g6CHICEYYbEc6R-7" value="Hire Date&amp;nbsp;" style="text;strokeColor=none;fillColor=none;spacingLeft=4;spacingRight=4;overflow=hidden;rotatable=0;points=[[0,0.5],[1,0.5]];portConstraint=eastwest;fontSize=12;whiteSpace=wrap;html=1;" parent="jGJSX7g6CHICEYYbEc6R-1" vertex="1">
          <mxGeometry y="176" width="147" height="30" as="geometry" />
        </mxCell>
        <mxCell id="jGJSX7g6CHICEYYbEc6R-8" value="Contact Information&lt;br/&gt;(Phone, Email, Address)&amp;nbsp;" style="text;strokeColor=none;fillColor=none;spacingLeft=4;spacingRight=4;overflow=hidden;rotatable=0;points=[[0,0.5],[1,0.5]];portConstraint=eastwest;fontSize=12;whiteSpace=wrap;html=1;" parent="jGJSX7g6CHICEYYbEc6R-1" vertex="1">
          <mxGeometry y="206" width="147" height="44" as="geometry" />
        </mxCell>
        <mxCell id="jGJSX7g6CHICEYYbEc6R-30" value="&lt;u&gt;Employee ID&lt;/u&gt;&amp;nbsp;" style="rounded=0;whiteSpace=wrap;html=1;" parent="1" vertex="1">
          <mxGeometry x="98.5" y="258" width="70" height="40" as="geometry" />
        </mxCell>
        <mxCell id="jGJSX7g6CHICEYYbEc6R-31" value="Name&amp;nbsp;" style="rounded=0;whiteSpace=wrap;html=1;" parent="1" vertex="1">
          <mxGeometry x="168.5" y="258" width="70" height="40" as="geometry" />
        </mxCell>
        <mxCell id="jGJSX7g6CHICEYYbEc6R-32" value="&lt;p class=&quot;MsoNormal&quot;&gt;Hire Date&amp;nbsp;&lt;br&gt;&lt;/p&gt;" style="rounded=0;whiteSpace=wrap;html=1;" parent="1" vertex="1">
          <mxGeometry x="657.5" y="258" width="70" height="40" as="geometry" />
        </mxCell>
        <mxCell id="jGJSX7g6CHICEYYbEc6R-33" value="&lt;p class=&quot;MsoNormal&quot;&gt;Date of Birth&lt;/p&gt;" style="rounded=0;whiteSpace=wrap;html=1;" parent="1" vertex="1">
          <mxGeometry x="238.5" y="258" width="70" height="40" as="geometry" />
        </mxCell>
        <mxCell id="jGJSX7g6CHICEYYbEc6R-34" value="Phone" style="rounded=0;whiteSpace=wrap;html=1;" parent="1" vertex="1">
          <mxGeometry x="308.5" y="258" width="70" height="40" as="geometry" />
        </mxCell>
        <mxCell id="jGJSX7g6CHICEYYbEc6R-35" value="Email" style="rounded=0;whiteSpace=wrap;html=1;" parent="1" vertex="1">
          <mxGeometry x="378.5" y="258" width="70" height="40" as="geometry" />
        </mxCell>
        <mxCell id="jGJSX7g6CHICEYYbEc6R-36" value="Address" style="rounded=0;whiteSpace=wrap;html=1;" parent="1" vertex="1">
          <mxGeometry x="447.5" y="258" width="70" height="40" as="geometry" />
        </mxCell>
        <mxCell id="jGJSX7g6CHICEYYbEc6R-37" value="&lt;p class=&quot;MsoNormal&quot;&gt;Salary&amp;nbsp;&lt;br&gt;&lt;/p&gt;" style="rounded=0;whiteSpace=wrap;html=1;" parent="1" vertex="1">
          <mxGeometry x="587.5" y="258" width="70" height="40" as="geometry" />
        </mxCell>
        <mxCell id="jGJSX7g6CHICEYYbEc6R-38" value="&lt;p class=&quot;MsoNormal&quot;&gt;Position&amp;nbsp;&lt;br&gt;&lt;/p&gt;" style="rounded=0;whiteSpace=wrap;html=1;" parent="1" vertex="1">
          <mxGeometry x="517.5" y="258" width="70" height="40" as="geometry" />
        </mxCell>
        <mxCell id="jGJSX7g6CHICEYYbEc6R-39" value="&lt;u&gt;Loan ID&lt;/u&gt;" style="rounded=0;whiteSpace=wrap;html=1;" parent="1" vertex="1">
          <mxGeometry x="415.5" y="731" width="42" height="40" as="geometry" />
        </mxCell>
        <mxCell id="jGJSX7g6CHICEYYbEc6R-40" value="Loan Type&amp;nbsp;" style="rounded=0;whiteSpace=wrap;html=1;" parent="1" vertex="1">
          <mxGeometry x="457.5" y="731" width="42" height="40" as="geometry" />
        </mxCell>
        <mxCell id="jGJSX7g6CHICEYYbEc6R-42" value="&lt;p class=&quot;MsoNormal&quot;&gt;Loan Amount&amp;nbsp;&lt;br&gt;&lt;/p&gt;" style="rounded=0;whiteSpace=wrap;html=1;" parent="1" vertex="1">
          <mxGeometry x="499.5" y="731" width="52" height="40" as="geometry" />
        </mxCell>
        <mxCell id="jGJSX7g6CHICEYYbEc6R-43" value="Interest Rate&amp;nbsp;" style="rounded=0;whiteSpace=wrap;html=1;" parent="1" vertex="1">
          <mxGeometry x="551.5" y="731" width="52" height="40" as="geometry" />
        </mxCell>
        <mxCell id="jGJSX7g6CHICEYYbEc6R-44" value="Loan Term&amp;nbsp;" style="rounded=0;whiteSpace=wrap;html=1;" parent="1" vertex="1">
          <mxGeometry x="603.5" y="731" width="52" height="40" as="geometry" />
        </mxCell>
        <mxCell id="jGJSX7g6CHICEYYbEc6R-45" value="Approval Date&amp;nbsp;" style="rounded=0;whiteSpace=wrap;html=1;" parent="1" vertex="1">
          <mxGeometry x="655.5" y="731" width="53" height="40" as="geometry" />
        </mxCell>
        <mxCell id="jGJSX7g6CHICEYYbEc6R-73" style="edgeStyle=orthogonalEdgeStyle;rounded=0;orthogonalLoop=1;jettySize=auto;html=1;exitX=0;exitY=0;exitDx=0;exitDy=0;entryX=0.75;entryY=1;entryDx=0;entryDy=0;" parent="1" source="jGJSX7g6CHICEYYbEc6R-46" target="_OQfR9bOk1HYMgB2qvdo-37" edge="1">
          <mxGeometry relative="1" as="geometry">
            <Array as="points">
              <mxPoint x="166.5" y="731" />
            </Array>
          </mxGeometry>
        </mxCell>
        <mxCell id="jGJSX7g6CHICEYYbEc6R-46" value="&lt;p class=&quot;MsoNormal&quot;&gt;&lt;u&gt;Account ID&amp;nbsp;&lt;/u&gt;&lt;br&gt;&lt;/p&gt;" style="rounded=0;whiteSpace=wrap;html=1;" parent="1" vertex="1">
          <mxGeometry x="352.5" y="731" width="63" height="40" as="geometry" />
        </mxCell>
        <mxCell id="jGJSX7g6CHICEYYbEc6R-47" value="&lt;p class=&quot;MsoNormal&quot;&gt;&lt;u&gt;Customer ID&lt;/u&gt;&lt;br&gt;&lt;/p&gt;" style="rounded=0;whiteSpace=wrap;html=1;" parent="1" vertex="1">
          <mxGeometry x="708.5" y="731" width="63" height="40" as="geometry" />
        </mxCell>
        <mxCell id="jGJSX7g6CHICEYYbEc6R-48" value="&lt;span style=&quot;line-height: 107%;&quot;&gt;&lt;font style=&quot;font-size: 14px;&quot;&gt;Employees&lt;/font&gt;&lt;/span&gt;" style="text;whiteSpace=wrap;html=1;" parent="1" vertex="1">
          <mxGeometry x="84.5" y="237" width="88" height="30" as="geometry" />
        </mxCell>
        <mxCell id="jGJSX7g6CHICEYYbEc6R-49" value="&lt;span style=&quot;line-height: 107%;&quot;&gt;&lt;font style=&quot;font-size: 14px;&quot;&gt;Loans&lt;/font&gt;&lt;/span&gt;" style="text;whiteSpace=wrap;html=1;" parent="1" vertex="1">
          <mxGeometry x="484.5" y="707" width="49" height="20" as="geometry" />
        </mxCell>
        <mxCell id="jGJSX7g6CHICEYYbEc6R-52" style="edgeStyle=orthogonalEdgeStyle;rounded=0;orthogonalLoop=1;jettySize=auto;html=1;exitX=0.75;exitY=0;exitDx=0;exitDy=0;entryX=0.5;entryY=0;entryDx=0;entryDy=0;endArrow=ERmandOne;endFill=0;startArrow=ERoneToMany;startFill=0;fillColor=#f8cecc;strokeColor=#b85450;" parent="1" source="jGJSX7g6CHICEYYbEc6R-9" target="_OQfR9bOk1HYMgB2qvdo-9" edge="1">
          <mxGeometry relative="1" as="geometry" />
        </mxCell>
        <mxCell id="jGJSX7g6CHICEYYbEc6R-9" value="Loans" style="swimlane;fontStyle=0;childLayout=stackLayout;horizontal=1;startSize=26;horizontalStack=0;resizeParent=1;resizeParentMax=0;resizeLast=0;collapsible=1;marginBottom=0;align=center;fontSize=14;fillColor=#f8cecc;strokeColor=#b85450;" parent="1" vertex="1">
          <mxGeometry x="49.5" y="-920" width="95" height="206" as="geometry" />
        </mxCell>
        <mxCell id="jGJSX7g6CHICEYYbEc6R-10" value="&lt;u&gt;Loan ID&lt;/u&gt;" style="text;strokeColor=none;fillColor=none;spacingLeft=4;spacingRight=4;overflow=hidden;rotatable=0;points=[[0,0.5],[1,0.5]];portConstraint=eastwest;fontSize=12;whiteSpace=wrap;html=1;" parent="jGJSX7g6CHICEYYbEc6R-9" vertex="1">
          <mxGeometry y="26" width="95" height="30" as="geometry" />
        </mxCell>
        <mxCell id="jGJSX7g6CHICEYYbEc6R-11" value="Loan Type&amp;nbsp;" style="text;strokeColor=none;fillColor=none;spacingLeft=4;spacingRight=4;overflow=hidden;rotatable=0;points=[[0,0.5],[1,0.5]];portConstraint=eastwest;fontSize=12;whiteSpace=wrap;html=1;" parent="jGJSX7g6CHICEYYbEc6R-9" vertex="1">
          <mxGeometry y="56" width="95" height="30" as="geometry" />
        </mxCell>
        <mxCell id="jGJSX7g6CHICEYYbEc6R-12" value="Loan Amount&amp;nbsp;" style="text;strokeColor=none;fillColor=none;spacingLeft=4;spacingRight=4;overflow=hidden;rotatable=0;points=[[0,0.5],[1,0.5]];portConstraint=eastwest;fontSize=12;whiteSpace=wrap;html=1;" parent="jGJSX7g6CHICEYYbEc6R-9" vertex="1">
          <mxGeometry y="86" width="95" height="30" as="geometry" />
        </mxCell>
        <mxCell id="jGJSX7g6CHICEYYbEc6R-13" value="Interest Rate&amp;nbsp;" style="text;strokeColor=none;fillColor=none;spacingLeft=4;spacingRight=4;overflow=hidden;rotatable=0;points=[[0,0.5],[1,0.5]];portConstraint=eastwest;fontSize=12;whiteSpace=wrap;html=1;" parent="jGJSX7g6CHICEYYbEc6R-9" vertex="1">
          <mxGeometry y="116" width="95" height="30" as="geometry" />
        </mxCell>
        <mxCell id="jGJSX7g6CHICEYYbEc6R-14" value="Loan Term&amp;nbsp;" style="text;strokeColor=none;fillColor=none;spacingLeft=4;spacingRight=4;overflow=hidden;rotatable=0;points=[[0,0.5],[1,0.5]];portConstraint=eastwest;fontSize=12;whiteSpace=wrap;html=1;" parent="jGJSX7g6CHICEYYbEc6R-9" vertex="1">
          <mxGeometry y="146" width="95" height="30" as="geometry" />
        </mxCell>
        <mxCell id="jGJSX7g6CHICEYYbEc6R-15" value="Approval Date&amp;nbsp;" style="text;strokeColor=none;fillColor=none;spacingLeft=4;spacingRight=4;overflow=hidden;rotatable=0;points=[[0,0.5],[1,0.5]];portConstraint=eastwest;fontSize=12;whiteSpace=wrap;html=1;" parent="jGJSX7g6CHICEYYbEc6R-9" vertex="1">
          <mxGeometry y="176" width="95" height="30" as="geometry" />
        </mxCell>
        <mxCell id="jGJSX7g6CHICEYYbEc6R-50" style="edgeStyle=orthogonalEdgeStyle;rounded=0;orthogonalLoop=1;jettySize=auto;html=1;exitX=1;exitY=0.5;exitDx=0;exitDy=0;entryX=0.641;entryY=0.007;entryDx=0;entryDy=0;entryPerimeter=0;endArrow=ERmandOne;endFill=0;startArrow=ERoneToMany;startFill=0;fillColor=#f8cecc;strokeColor=#b85450;" parent="1" source="jGJSX7g6CHICEYYbEc6R-10" target="_OQfR9bOk1HYMgB2qvdo-1" edge="1">
          <mxGeometry relative="1" as="geometry" />
        </mxCell>
        <mxCell id="jGJSX7g6CHICEYYbEc6R-51" style="edgeStyle=orthogonalEdgeStyle;rounded=0;orthogonalLoop=1;jettySize=auto;html=1;exitX=1;exitY=0.5;exitDx=0;exitDy=0;entryX=0;entryY=0.5;entryDx=0;entryDy=0;endArrow=ERmandOne;endFill=0;startArrow=ERoneToMany;startFill=0;fillColor=#f8cecc;strokeColor=#b85450;" parent="1" source="jGJSX7g6CHICEYYbEc6R-18" target="_OQfR9bOk1HYMgB2qvdo-5" edge="1">
          <mxGeometry relative="1" as="geometry" />
        </mxCell>
        <mxCell id="jGJSX7g6CHICEYYbEc6R-53" value="&lt;u&gt;Credit Score ID&lt;/u&gt;" style="rounded=0;whiteSpace=wrap;html=1;" parent="1" vertex="1">
          <mxGeometry x="141.5" y="197" width="70" height="40" as="geometry" />
        </mxCell>
        <mxCell id="jGJSX7g6CHICEYYbEc6R-75" style="edgeStyle=orthogonalEdgeStyle;rounded=0;orthogonalLoop=1;jettySize=auto;html=1;exitX=0;exitY=0.5;exitDx=0;exitDy=0;entryX=0;entryY=0.5;entryDx=0;entryDy=0;" parent="1" source="jGJSX7g6CHICEYYbEc6R-54" target="_OQfR9bOk1HYMgB2qvdo-27" edge="1">
          <mxGeometry relative="1" as="geometry" />
        </mxCell>
        <mxCell id="jGJSX7g6CHICEYYbEc6R-54" value="&lt;u&gt;Customer ID&lt;/u&gt;" style="rounded=0;whiteSpace=wrap;html=1;" parent="1" vertex="1">
          <mxGeometry x="80" y="197" width="60" height="40" as="geometry" />
        </mxCell>
        <mxCell id="jGJSX7g6CHICEYYbEc6R-55" value="&lt;p class=&quot;MsoNormal&quot;&gt;Score Date&amp;nbsp;&lt;br&gt;&lt;/p&gt;" style="rounded=0;whiteSpace=wrap;html=1;" parent="1" vertex="1">
          <mxGeometry x="250.5" y="197" width="50" height="40" as="geometry" />
        </mxCell>
        <mxCell id="jGJSX7g6CHICEYYbEc6R-56" value="&lt;p class=&quot;MsoNormal&quot;&gt;Score&amp;nbsp;&lt;br&gt;&lt;/p&gt;" style="rounded=0;whiteSpace=wrap;html=1;" parent="1" vertex="1">
          <mxGeometry x="211.5" y="197" width="40" height="40" as="geometry" />
        </mxCell>
        <mxCell id="jGJSX7g6CHICEYYbEc6R-57" value="&lt;span style=&quot;line-height: 107%;&quot;&gt;&lt;font style=&quot;font-size: 14px;&quot;&gt;Credit Scores&lt;/font&gt;&lt;/span&gt;" style="text;whiteSpace=wrap;html=1;" parent="1" vertex="1">
          <mxGeometry x="47.5" y="170" width="130" height="37" as="geometry" />
        </mxCell>
        <mxCell id="jGJSX7g6CHICEYYbEc6R-61" style="edgeStyle=orthogonalEdgeStyle;rounded=0;orthogonalLoop=1;jettySize=auto;html=1;exitX=0.5;exitY=1;exitDx=0;exitDy=0;entryX=0.871;entryY=0;entryDx=0;entryDy=0;entryPerimeter=0;" parent="1" source="_OQfR9bOk1HYMgB2qvdo-63" target="_OQfR9bOk1HYMgB2qvdo-45" edge="1">
          <mxGeometry relative="1" as="geometry" />
        </mxCell>
        <mxCell id="jGJSX7g6CHICEYYbEc6R-67" style="edgeStyle=orthogonalEdgeStyle;rounded=0;orthogonalLoop=1;jettySize=auto;html=1;exitX=0.5;exitY=1;exitDx=0;exitDy=0;entryX=0.75;entryY=0;entryDx=0;entryDy=0;" parent="1" source="jGJSX7g6CHICEYYbEc6R-62" target="_OQfR9bOk1HYMgB2qvdo-27" edge="1">
          <mxGeometry relative="1" as="geometry">
            <Array as="points">
              <mxPoint x="619.5" y="478" />
              <mxPoint x="163.5" y="478" />
            </Array>
          </mxGeometry>
        </mxCell>
        <mxCell id="jGJSX7g6CHICEYYbEc6R-62" value="&lt;u&gt;Customer ID&lt;/u&gt;" style="rounded=0;whiteSpace=wrap;html=1;" parent="1" vertex="1">
          <mxGeometry x="584.5" y="368" width="70" height="40" as="geometry" />
        </mxCell>
        <mxCell id="jGJSX7g6CHICEYYbEc6R-69" style="edgeStyle=orthogonalEdgeStyle;rounded=0;orthogonalLoop=1;jettySize=auto;html=1;exitX=0.25;exitY=0;exitDx=0;exitDy=0;entryX=0.5;entryY=1;entryDx=0;entryDy=0;" parent="1" source="jGJSX7g6CHICEYYbEc6R-63" target="jGJSX7g6CHICEYYbEc6R-30" edge="1">
          <mxGeometry relative="1" as="geometry">
            <Array as="points">
              <mxPoint x="672.5" y="318" />
              <mxPoint x="133.5" y="318" />
            </Array>
          </mxGeometry>
        </mxCell>
        <mxCell id="jGJSX7g6CHICEYYbEc6R-63" value="&lt;u&gt;Employee ID&lt;/u&gt;&amp;nbsp;" style="rounded=0;whiteSpace=wrap;html=1;" parent="1" vertex="1">
          <mxGeometry x="654.5" y="368" width="80" height="40" as="geometry" />
        </mxCell>
        <mxCell id="jGJSX7g6CHICEYYbEc6R-66" style="edgeStyle=orthogonalEdgeStyle;rounded=0;orthogonalLoop=1;jettySize=auto;html=1;exitX=0.25;exitY=1;exitDx=0;exitDy=0;entryX=0.872;entryY=0.9;entryDx=0;entryDy=0;entryPerimeter=0;" parent="1" source="FK3XN3L6abhNY9gMOmqv-38" edge="1">
          <mxGeometry relative="1" as="geometry">
            <mxPoint x="142.98000000000002" y="498" as="targetPoint" />
            <Array as="points">
              <mxPoint x="209.5" y="468" />
              <mxPoint x="143.5" y="468" />
            </Array>
          </mxGeometry>
        </mxCell>
        <mxCell id="jGJSX7g6CHICEYYbEc6R-70" style="edgeStyle=orthogonalEdgeStyle;rounded=0;orthogonalLoop=1;jettySize=auto;html=1;exitX=0.25;exitY=0;exitDx=0;exitDy=0;entryX=0.627;entryY=1;entryDx=0;entryDy=0;entryPerimeter=0;" parent="1" source="_OQfR9bOk1HYMgB2qvdo-67" target="_OQfR9bOk1HYMgB2qvdo-27" edge="1">
          <mxGeometry relative="1" as="geometry" />
        </mxCell>
        <mxCell id="jGJSX7g6CHICEYYbEc6R-74" style="edgeStyle=orthogonalEdgeStyle;rounded=0;orthogonalLoop=1;jettySize=auto;html=1;exitX=0.5;exitY=0;exitDx=0;exitDy=0;entryX=0.848;entryY=1;entryDx=0;entryDy=0;entryPerimeter=0;" parent="1" source="jGJSX7g6CHICEYYbEc6R-47" target="_OQfR9bOk1HYMgB2qvdo-27" edge="1">
          <mxGeometry relative="1" as="geometry">
            <Array as="points">
              <mxPoint x="740.5" y="548" />
              <mxPoint x="171.5" y="548" />
            </Array>
          </mxGeometry>
        </mxCell>
        <mxCell id="jGJSX7g6CHICEYYbEc6R-76" value="&lt;b style=&quot;font-size: 20px;&quot;&gt;Final Project&lt;br&gt;&lt;/b&gt;&lt;font style=&quot;font-size: 15px;&quot;&gt;By:&lt;b&gt; Farzaneh Noroozi&lt;/b&gt;&lt;/font&gt;" style="text;html=1;align=center;verticalAlign=middle;resizable=0;points=[];autosize=1;strokeColor=none;fillColor=none;" parent="1" vertex="1">
          <mxGeometry x="319.5" y="-1140" width="180" height="60" as="geometry" />
        </mxCell>
        <mxCell id="tG_hlWI0OZZhXL4Z1fQ0-1" style="edgeStyle=orthogonalEdgeStyle;rounded=0;orthogonalLoop=1;jettySize=auto;html=1;exitX=0.5;exitY=1;exitDx=0;exitDy=0;entryX=1.138;entryY=0.817;entryDx=0;entryDy=0;entryPerimeter=0;" parent="1" source="_OQfR9bOk1HYMgB2qvdo-68" target="_OQfR9bOk1HYMgB2qvdo-41" edge="1">
          <mxGeometry relative="1" as="geometry">
            <Array as="points">
              <mxPoint x="286" y="640" />
              <mxPoint x="151" y="640" />
            </Array>
          </mxGeometry>
        </mxCell>
        <mxCell id="DQ1seoP_OfVG3CEoP_Cl-1" style="edgeStyle=orthogonalEdgeStyle;rounded=0;orthogonalLoop=1;jettySize=auto;html=1;exitX=1;exitY=0.5;exitDx=0;exitDy=0;entryX=0;entryY=0.5;entryDx=0;entryDy=0;endArrow=ERoneToMany;endFill=0;startArrow=ERmandOne;startFill=0;fillColor=#f8cecc;strokeColor=#b85450;" edge="1" parent="1" source="_OQfR9bOk1HYMgB2qvdo-7" target="FK3XN3L6abhNY9gMOmqv-30">
          <mxGeometry relative="1" as="geometry" />
        </mxCell>
        <mxCell id="DQ1seoP_OfVG3CEoP_Cl-2" style="edgeStyle=orthogonalEdgeStyle;rounded=0;orthogonalLoop=1;jettySize=auto;html=1;exitX=0;exitY=0.5;exitDx=0;exitDy=0;entryX=1;entryY=0.75;entryDx=0;entryDy=0;endArrow=ERoneToMany;endFill=0;startArrow=ERmandOne;startFill=0;fillColor=#f8cecc;strokeColor=#b85450;" edge="1" parent="1" source="_OQfR9bOk1HYMgB2qvdo-23" target="FK3XN3L6abhNY9gMOmqv-30">
          <mxGeometry relative="1" as="geometry" />
        </mxCell>
      </root>
    </mxGraphModel>
  </diagram>
</mxfile>
